<?xml version="1.0" encoding="UTF-8" standalone="no"?>
<!-- Generator: Adobe Illustrator 24.0.2, SVG Export Plug-In . SVG Version: 6.00 Build 0)  -->

<svg
   xmlns:dc="http://purl.org/dc/elements/1.1/"
   xmlns:cc="http://creativecommons.org/ns#"
   xmlns:rdf="http://www.w3.org/1999/02/22-rdf-syntax-ns#"
   xmlns:svg="http://www.w3.org/2000/svg"
   xmlns="http://www.w3.org/2000/svg"
   xmlns:sodipodi="http://sodipodi.sourceforge.net/DTD/sodipodi-0.dtd"
   xmlns:inkscape="http://www.inkscape.org/namespaces/inkscape"
   version="1.1"
   id="Capa_1"
   x="0px"
   y="0px"
   viewBox="0 0 675.9 265.29999"
   xml:space="preserve"
   sodipodi:docname="logo.svg"
   inkscape:version="0.92.4 (5da689c313, 2019-01-14)"
   width="65"
   height="25"><metadata
   id="metadata21"><rdf:RDF><cc:Work
       rdf:about=""><dc:format>image/svg+xml</dc:format><dc:type
         rdf:resource="http://purl.org/dc/dcmitype/StillImage" /><dc:title></dc:title></cc:Work></rdf:RDF></metadata><defs
   id="defs19" /><sodipodi:namedview
   pagecolor="#ffffff"
   bordercolor="#666666"
   borderopacity="1"
   objecttolerance="10"
   gridtolerance="10"
   guidetolerance="10"
   inkscape:pageopacity="0"
   inkscape:pageshadow="2"
   inkscape:window-width="1366"
   inkscape:window-height="717"
   id="namedview17"
   showgrid="true"
   inkscape:zoom="0.32901769"
   inkscape:cx="-135.25109"
   inkscape:cy="297.64999"
   inkscape:window-x="0"
   inkscape:window-y="26"
   inkscape:window-maximized="1"
   inkscape:current-layer="Capa_1"><inkscape:grid
     type="xygrid"
     id="grid23" /></sodipodi:namedview>
<style
   type="text/css"
   id="style2">
	.st0{fill:#38BDD0;}
	.st1{fill:url(#Trazado_908_2_);}
	.st2{fill:url(#Trazado_909_2_);}
	.st3{fill:url(#Trazado_910_2_);}
	.st4{fill:#3CBACE;}
</style>
<g
   id="g14"
   transform="translate(-74.849988,-162.5)">
	<path
   class="st0"
   d="m 271.7,205.8 c -13.5,-6 -29.4,-9 -47.6,-9 h -94.9 v 33.6 H 239 v 28.5 c -1.4,-0.6 -2.9,-0.9 -4.6,-0.9 -6.9,0 -12.4,5.6 -12.4,12.4 0,6.9 5.6,12.4 12.4,12.4 1.6,0 3.1,-0.3 4.6,-0.9 v 31.5 H 129.2 v 80.3 h 66.5 v -48.4 h 28.4 c 18.2,0 34.1,-3 47.6,-9 13.5,-6 23.9,-14.6 31.3,-25.9 7.3,-11.3 11,-24.4 11,-39.4 0,-15 -3.7,-28.2 -11,-39.4 -7.4,-11.2 -17.8,-19.8 -31.3,-25.8 z"
   id="path4"
   inkscape:connector-curvature="0"
   style="fill:#38bdd0" />
	<polygon
   class="st0"
   points="394.7,393.9 460.1,393.9 543.4,196.8 478.1,196.8 429.9,311.9 382.9,196.8 311.4,196.8 "
   id="polygon6"
   style="fill:#38bdd0" />
	<path
   class="st0"
   d="m 703.8,298.1 c -7.6,-8.3 -16.6,-14.2 -26.9,-17.9 -10.3,-3.7 -23,-6.9 -38,-9.7 -11.6,-2.3 -20,-4.4 -25.1,-6.3 -5.1,-2 -7.6,-4.9 -7.6,-8.9 0,-8.3 8.5,-12.4 25.6,-12.4 17.3,0 35.6,4.9 54.9,14.6 l 20,-48.2 c -10,-5.6 -21.4,-9.9 -34.5,-12.8 -13.1,-2.9 -26.3,-4.4 -39.8,-4.4 -19.7,0 -36.5,2.9 -50.3,8.7 -13.8,5.8 -24.2,13.8 -31.1,23.9 -6.9,10.1 -10.4,21.4 -10.4,33.8 0,14.3 3.8,25.6 11.3,33.9 7.5,8.4 16.3,14.4 26.5,18 10.1,3.7 22.8,7.1 38,10.3 11.8,2.4 20.3,4.7 25.5,6.8 5.2,2.1 7.7,5.2 7.7,9.3 0,3.6 -2,6.2 -5.9,8 -3.9,1.8 -10.5,2.7 -19.7,2.7 -10.7,0 -21.9,-1.6 -33.5,-4.9 -11.6,-3.3 -22.2,-7.6 -31.5,-13.1 l -21.4,48.4 c 9.9,6.2 22.7,11.1 38.2,14.8 15.5,3.7 31.4,5.5 47.7,5.5 19.7,0 36.5,-3 50.3,-8.9 13.8,-5.9 24.2,-13.9 31.1,-23.9 6.9,-10 10.4,-21.3 10.4,-33.6 -0.1,-14.1 -3.9,-25.4 -11.5,-33.7 z"
   id="path8"
   inkscape:connector-curvature="0"
   style="fill:#38bdd0" />
	<path
   class="st0"
   d="m 138.8,282.9 c 6.9,0 12.4,-5.6 12.4,-12.4 0,-6.9 -5.6,-12.4 -12.4,-12.4 -3.8,0 -7.3,1.7 -9.6,4.5 -1.8,2.2 -2.9,4.9 -2.9,8 0,3 1.1,5.8 2.9,8 2.3,2.6 5.7,4.3 9.6,4.3 z"
   id="path10"
   inkscape:connector-curvature="0"
   style="fill:#38bdd0" />
	
		<circle
   transform="matrix(0.3827,-0.9239,0.9239,0.3827,-133.2895,341.462)"
   class="st0"
   cx="188.89999"
   cy="270.5"
   id="ellipse12"
   r="12.4"
   style="fill:#38bdd0" />
</g>
</svg>